<?xml version="1.0" encoding="UTF-8"?>
<!DOCTYPE svg PUBLIC "-//W3C//DTD SVG 1.1//EN" "http://www.w3.org/Graphics/SVG/1.1/DTD/svg11.dtd">
<!-- Creator: CorelDRAW 2018 (64-Bit Not for commercial use) -->
<svg xmlns="http://www.w3.org/2000/svg" xml:space="preserve" width="5.33333in" height="4.00001in" version="1.1" style="shape-rendering:geometricPrecision; text-rendering:geometricPrecision; image-rendering:optimizeQuality; fill-rule:evenodd; clip-rule:evenodd"
viewBox="0 0 5333.33 4000.01"
 xmlns:xlink="http://www.w3.org/1999/xlink">
 <defs>
  <style type="text/css">
   <![CDATA[
    .str0 {stroke:#1C1B17;stroke-width:3;stroke-miterlimit:2.61313}
    .fil4 {fill:none}
    .fil1 {fill:#1C1B17}
    .fil2 {fill:black}
    .fil0 {fill:#BB8D32}
    .fil3 {fill:black;fill-rule:nonzero}
   ]]>
  </style>
 </defs>
 <g id="Layer_x0020_1">
  <metadata id="CorelCorpID_0Corel-Layer"/>
  <g id="_1754019532704">
   <g>
    <ellipse class="fil0" cx="2704.75" cy="1066.09" rx="1066.1" ry="1066.09"/>
    <g>
     <path class="fil1 str0" d="M2705.11 1066.01l0 -885.46c489.02,0 885.46,396.43 885.46,885.46l-885.46 0z"/>
     <path class="fil1 str0" d="M2704.4 1066.18l0 885.45c-489.03,0 -885.46,-396.43 -885.46,-885.45l885.46 0z"/>
    </g>
    <circle class="fil1" cx="2704.76" cy="1066.09" r="531.04"/>
    <circle class="fil0" cx="2704.75" cy="1066.09" r="408.56"/>
    <circle class="fil1" cx="2704.75" cy="1066.09" r="225.73"/>
   </g>
   <polygon class="fil2" points="893.91,2107.02 893.91,25.17 1463.73,25.17 1463.73,324.2 1266.67,324.2 1266.67,842.65 1471.81,842.65 1471.81,1267.74 1266.67,1267.74 1266.67,1760.23 1471.81,1760.23 1471.81,2107.02 "/>
   <polygon class="fil2" points="3871.1,2111.98 3871.1,1833.8 3982.72,1833.8 3982.72,292.68 3871.1,292.68 3871.1,20.2 4439.43,20.2 4439.43,296.74 4329,296.74 4333.06,1829.74 4435.36,1829.74 4435.37,2111.98 "/>
   <g>
    <path class="fil3" d="M1005.94 2318l0 138.36 179.54 0 0 84.2 -179.54 0 0 141.33 230.73 0 0 87.17 -342.75 0 0 -538.23 342.75 0 0 87.17 -230.73 0zm564.58 176.94l184.73 0 0 222.19c-27.45,20.03 -56.63,34.62 -87.67,43.9 -31.03,9.27 -63.92,13.97 -98.54,13.97 -44.27,0 -84.33,-6.93 -120.19,-20.65 -35.85,-13.72 -66.52,-32.76 -92,-57.25 -25.47,-24.48 -45.13,-53.54 -58.97,-87.17 -13.85,-33.63 -20.78,-70.35 -20.78,-110.17 0,-40.31 6.67,-77.28 19.91,-110.91 13.23,-33.63 32.02,-62.57 56.5,-86.8 24.48,-24.24 54.16,-43.15 88.9,-56.76 34.75,-13.59 73.57,-20.4 116.61,-20.4 22.25,0 43.03,1.73 62.32,5.32 19.29,3.59 37.09,8.54 53.41,14.84 16.33,6.3 31.29,13.85 44.89,22.5 13.6,8.66 25.96,18.18 37.09,28.56l-32.27 49.7c-4.95,7.91 -11.38,12.74 -19.29,14.47 -7.92,1.73 -16.57,-0.25 -25.97,-5.93 -8.9,-5.44 -17.56,-10.39 -26.09,-14.71 -8.53,-4.33 -17.68,-8.04 -27.32,-11.25 -9.65,-3.22 -20.16,-5.69 -31.54,-7.42 -11.37,-1.73 -24.48,-2.59 -39.32,-2.59 -24.98,0 -47.61,4.33 -67.88,12.98 -20.28,8.66 -37.47,20.89 -51.69,36.72 -14.22,15.82 -25.22,34.87 -32.89,57.12 -7.67,22.26 -11.5,47.11 -11.5,74.56 0,29.67 4.2,56.13 12.61,79.5 8.41,23.37 20.28,43.16 35.61,59.23 15.33,16.07 33.76,28.31 55.15,36.72 21.39,8.41 45.13,12.61 71.35,12.61 17.81,0 33.76,-1.85 47.73,-5.44 13.98,-3.59 27.57,-8.41 40.93,-14.59l0 -90.51 -60.84 0c-7.17,0 -12.74,-1.98 -16.81,-5.81 -4.08,-3.83 -6.19,-8.66 -6.19,-14.59l0 -61.94zm504.11 67.14l0 206.98 -111.28 0 0 -206.98 -195.5 -331.25 97.93 0c9.65,0 17.44,2.22 23.24,6.8 5.81,4.57 10.39,10.51 13.85,17.68l88.29 169.52c5.94,11.38 11.37,22.01 16.2,31.9 4.82,9.89 9.02,19.78 12.74,29.68 3.46,-9.9 7.54,-19.91 12.12,-29.93 4.57,-10.02 9.65,-20.53 15.33,-31.65l87.54 -169.52c2.96,-5.94 7.42,-11.5 13.36,-16.69 5.93,-5.19 13.59,-7.79 22.99,-7.79l98.67 0 -195.49 331.25zm426.59 -63.43c34.87,0 60.46,-8.41 76.66,-25.22 16.2,-16.82 24.23,-39.81 24.23,-69 0,-13.35 -1.98,-25.59 -6.06,-36.6 -4.07,-11 -10.26,-20.4 -18.54,-28.19 -8.29,-7.79 -18.8,-13.73 -31.41,-17.93 -12.61,-4.2 -27.57,-6.31 -44.88,-6.31l-70.48 0 0 183.24 70.48 0zm0 -267.81c36.85,0 68.74,4.33 95.57,12.98 26.83,8.66 48.85,20.65 66.16,36.1 17.31,15.46 30.17,33.88 38.45,55.15 8.29,21.27 12.36,44.39 12.36,69.37 0,26.46 -4.33,50.7 -12.98,72.7 -8.66,22.01 -21.76,40.93 -39.32,56.75 -17.56,15.83 -39.7,28.07 -66.41,36.85 -26.71,8.78 -57.99,13.23 -93.85,13.23l-70.48 0 0 185.1 -111.28 0 0 -538.23 181.76 0zm664.37 89.77l-157.29 0 0 448.46 -111.65 0 0 -448.46 -157.28 0 0 -89.77 426.22 0 0 89.77zm179.16 448.46l-112.02 0 0 -538.23 112.02 0 0 538.23zm396.92 -204.39l-58.24 -164.7c-3.46,-8.65 -7.05,-18.79 -10.88,-30.42 -3.83,-11.62 -7.54,-24.24 -11,-37.83 -3.46,13.85 -7.05,26.58 -10.88,38.33 -3.83,11.74 -7.54,22.01 -11,30.67l-57.87 163.96 159.88 0zm186.96 204.39l-86.43 0c-9.65,0 -17.43,-2.35 -23.49,-6.92 -6.06,-4.57 -10.64,-10.39 -13.6,-17.56l-36.35 -102.75 -214.41 0 -36.35 102.75c-2.47,6.18 -6.8,11.74 -12.98,16.81 -6.18,5.07 -13.97,7.66 -23.37,7.66l-87.18 0 210.33 -538.23 113.88 0 209.96 538.23zm510.79 -538.23l0 538.23 -57.49 0c-8.66,0 -15.95,-1.48 -21.89,-4.33 -5.93,-2.84 -11.74,-7.67 -17.43,-14.59l-268.2 -341.27c0.74,8.65 1.36,17.19 1.73,25.59 0.37,8.41 0.5,16.2 0.5,23.37l0 311.22 -98.3 0 0 -538.23 58.61 0c4.7,0 8.78,0.12 12.12,0.49 3.33,0.37 6.3,1.24 9.02,2.6 2.72,1.36 5.31,3.21 7.79,5.44 2.47,2.23 5.19,5.19 8.16,8.91l270.05 342.75c-0.99,-9.39 -1.73,-18.55 -2.23,-27.33 -0.49,-8.78 -0.74,-17.06 -0.74,-24.98l0 -307.88 98.3 0z"/>
    <path class="fil3" d="M1302.95 3151.56c0,29.15 -4.86,56.2 -14.67,81.15 -9.81,24.94 -23.66,46.49 -41.54,64.64 -17.88,18.16 -39.43,32.37 -64.55,42.73 -25.13,10.36 -53,15.59 -83.63,15.59 -30.62,0 -58.49,-5.22 -83.62,-15.59 -25.12,-10.36 -46.67,-24.57 -64.64,-42.73 -17.97,-18.15 -31.81,-39.7 -41.63,-64.64 -9.81,-24.94 -14.76,-52 -14.76,-81.15 0,-29.16 4.95,-56.21 14.76,-81.06 9.81,-24.85 23.65,-46.3 41.63,-64.46 17.97,-18.15 39.52,-32.46 64.64,-42.81 25.13,-10.36 53,-15.5 83.62,-15.5 30.63,0 58.5,5.13 83.63,15.5 25.12,10.36 46.67,24.66 64.55,42.91 17.88,18.25 31.73,39.8 41.54,64.64 9.81,24.85 14.67,51.81 14.67,80.78zm-84.45 0c0,-20.91 -2.76,-39.7 -8.26,-56.3 -5.5,-16.59 -13.39,-30.71 -23.75,-42.36 -10.36,-11.65 -22.92,-20.54 -37.69,-26.69 -14.76,-6.14 -31.54,-9.17 -50.25,-9.17 -18.7,0 -35.48,3.02 -50.33,9.17 -14.85,6.14 -27.41,15.04 -37.78,26.69 -10.36,11.65 -18.34,25.76 -23.84,42.36 -5.5,16.6 -8.25,35.39 -8.25,56.3 0,21.09 2.75,39.89 8.25,56.48 5.5,16.6 13.48,30.72 23.84,42.27 10.37,11.56 22.93,20.35 37.78,26.5 14.85,6.15 31.63,9.26 50.33,9.26 18.71,0 35.49,-3.11 50.25,-9.26 14.77,-6.14 27.33,-14.94 37.69,-26.5 10.36,-11.56 18.25,-25.67 23.75,-42.27 5.5,-16.59 8.26,-35.39 8.26,-56.48zm381.81 132.59l0 67.12 -236.84 0 0 -399.14 82.52 0 0 332.02 154.32 0zm178.25 -86.38l0 153.5 -82.52 0 0 -153.5 -144.96 -245.64 72.62 0c7.15,0 12.93,1.65 17.24,5.04 4.31,3.39 7.7,7.8 10.27,13.11l65.47 125.71c4.4,8.44 8.44,16.32 12.01,23.66 3.57,7.33 6.69,14.67 9.45,22.01 2.56,-7.34 5.59,-14.77 8.98,-22.19 3.4,-7.43 7.15,-15.22 11.37,-23.47l64.93 -125.71c2.2,-4.4 5.5,-8.53 9.9,-12.38 4.4,-3.85 10.08,-5.78 17.06,-5.78l73.17 0 -144.97 245.64zm621.69 -245.64l0 399.14 -72.9 0 0 -245.09c0,-5.13 0.19,-10.64 0.46,-16.5 0.28,-5.87 0.73,-11.83 1.47,-17.89l-114.17 216.49c-6.23,11.92 -15.86,17.88 -28.88,17.88l-11.56 0c-6.42,0 -12.1,-1.56 -17.06,-4.59 -4.95,-3.02 -8.9,-7.43 -11.83,-13.29l-114.7 -217.31c0.55,6.42 1.01,12.56 1.37,18.52 0.37,5.96 0.55,11.56 0.55,16.69l0 245.09 -72.9 0 0 -399.14 62.72 0c3.48,0 6.6,0.09 9.35,0.28 2.75,0.18 5.22,0.64 7.33,1.46 2.11,0.82 4.04,2.11 5.78,3.85 1.75,1.74 3.39,4.22 5.05,7.33l111.68 212.91c3.48,6.42 6.78,13.02 9.81,19.8 3.02,6.79 5.87,13.76 8.62,20.91 2.75,-7.33 5.69,-14.49 8.71,-21.46 3.02,-6.97 6.23,-13.66 9.72,-20.08l110.86 -212.09c1.65,-3.11 3.39,-5.59 5.22,-7.33 1.83,-1.74 3.85,-3.03 5.96,-3.85 2.11,-0.82 4.49,-1.28 7.15,-1.46 2.66,-0.19 5.78,-0.28 9.44,-0.28l62.72 0zm218.14 198.61c25.86,0 44.84,-6.23 56.85,-18.7 12.01,-12.47 17.96,-29.52 17.96,-51.17 0,-9.9 -1.46,-18.98 -4.49,-27.14 -3.03,-8.16 -7.61,-15.13 -13.76,-20.91 -6.14,-5.78 -13.94,-10.18 -23.29,-13.3 -9.35,-3.11 -20.45,-4.67 -33.29,-4.67l-52.26 0 0 135.89 52.26 0zm0 -198.61c27.33,0 50.98,3.21 70.88,9.63 19.9,6.42 36.22,15.31 49.06,26.78 12.84,11.46 22.37,25.13 28.52,40.9 6.14,15.77 9.17,32.92 9.17,51.44 0,19.63 -3.2,37.6 -9.63,53.92 -6.42,16.32 -16.14,30.35 -29.15,42.09 -13.03,11.74 -29.43,20.81 -49.24,27.32 -19.81,6.51 -43,9.81 -69.59,9.81l-52.26 0 0 137.26 -82.52 0 0 -399.14 134.79 0zm293.24 399.14l-83.07 0 0 -399.14 83.07 0 0 399.14zm294.33 -151.57l-43.19 -122.14c-2.57,-6.42 -5.22,-13.94 -8.07,-22.56 -2.84,-8.62 -5.59,-17.97 -8.16,-28.06 -2.57,10.27 -5.23,19.71 -8.07,28.43 -2.84,8.71 -5.59,16.32 -8.16,22.74l-42.91 121.58 118.56 0zm138.64 151.57l-64.09 0c-7.15,0 -12.93,-1.74 -17.43,-5.13 -4.49,-3.39 -7.88,-7.7 -10.08,-13.02l-26.96 -76.2 -159 0 -26.96 76.2c-1.83,4.58 -5.05,8.71 -9.63,12.47 -4.58,3.76 -10.36,5.68 -17.33,5.68l-64.64 0 155.97 -399.14 84.45 0 155.7 399.14zm394.74 -199.7c0,29.15 -4.86,55.93 -14.67,80.41 -9.81,24.48 -23.66,45.57 -41.54,63.17 -17.88,17.61 -39.43,31.36 -64.56,41.26 -25.12,9.9 -53,14.85 -83.62,14.85l-153.49 0 0 -399.14 153.49 0c30.62,0 58.5,4.96 83.62,14.86 25.13,9.9 46.67,23.65 64.56,41.35 17.88,17.7 31.72,38.79 41.54,63.18 9.81,24.39 14.67,51.07 14.67,80.05zm-84.73 0c0,-20.91 -2.75,-39.7 -8.25,-56.39 -5.51,-16.69 -13.39,-30.81 -23.66,-42.37 -10.27,-11.55 -22.74,-20.45 -37.5,-26.68 -14.76,-6.24 -31.54,-9.35 -50.25,-9.35l-70.42 0 0 269.85 70.42 0c18.7,0 35.49,-3.12 50.25,-9.26 14.76,-6.14 27.23,-15.04 37.5,-26.69 10.27,-11.65 18.15,-25.76 23.66,-42.45 5.5,-16.69 8.25,-35.57 8.25,-56.67zm359.26 199.7l-83.07 0 0 -399.14 83.07 0 0 399.14zm425.55 -399.14l0 399.14 -42.64 0c-6.42,0 -11.83,-1.1 -16.22,-3.21 -4.41,-2.11 -8.71,-5.68 -12.93,-10.82l-198.89 -253.07c0.55,6.42 1.01,12.75 1.29,18.98 0.27,6.24 0.37,12.01 0.37,17.33l0 230.79 -72.9 0 0 -399.14 43.46 0c3.48,0 6.5,0.09 8.98,0.37 2.48,0.28 4.68,0.92 6.7,1.93 2.02,1.01 3.94,2.38 5.78,4.03 1.83,1.65 3.85,3.85 6.06,6.6l200.26 254.17c-0.74,-6.96 -1.28,-13.75 -1.65,-20.26 -0.37,-6.51 -0.55,-12.66 -0.55,-18.52l0 -228.32 72.9 0z"/>
    <path class="fil3" d="M973.99 3995.77l-80.06 0 0 -384.66 80.06 0 0 384.66zm410.11 -384.66l0 384.66 -41.09 0c-6.19,0 -11.4,-1.06 -15.64,-3.09 -4.24,-2.03 -8.39,-5.48 -12.46,-10.43l-191.67 -243.9c0.53,6.19 0.97,12.29 1.24,18.3 0.26,6 0.35,11.57 0.35,16.7l0 222.42 -70.26 0 0 -384.66 41.89 0c3.36,0 6.27,0.09 8.66,0.35 2.38,0.26 4.5,0.89 6.45,1.85 1.94,0.97 3.8,2.3 5.56,3.89 1.77,1.59 3.71,3.71 5.83,6.36l192.99 244.95c-0.7,-6.72 -1.24,-13.26 -1.59,-19.53 -0.35,-6.27 -0.53,-12.19 -0.53,-17.85l0 -220.04 70.25 0zm160.65 62.3l0 106.3 138.39 0 0 62.56 -138.39 0 0 153.5 -80.06 0 0 -384.66 244.95 0 0 62.3 -164.89 0zm588.26 129.9c0,28.1 -4.69,54.17 -14.14,78.2 -9.46,24.04 -22.8,44.8 -40.04,62.3 -17.23,17.49 -37.99,31.19 -62.21,41.17 -24.21,9.98 -51.07,15.03 -80.59,15.03 -29.51,0 -56.37,-5.04 -80.59,-15.03 -24.22,-9.98 -44.98,-23.68 -62.3,-41.17 -17.32,-17.5 -30.66,-38.27 -40.12,-62.3 -9.45,-24.04 -14.22,-50.1 -14.22,-78.2 0,-28.1 4.77,-54.17 14.22,-78.12 9.46,-23.94 22.8,-44.63 40.12,-62.12 17.31,-17.5 38.08,-31.28 62.3,-41.27 24.21,-9.98 51.07,-14.93 80.59,-14.93 29.52,0 56.38,4.95 80.59,14.93 24.22,9.98 44.98,23.77 62.21,41.36 17.23,17.58 30.57,38.35 40.04,62.3 9.45,23.95 14.14,49.93 14.14,77.85zm-81.39 0c0,-20.15 -2.65,-38.26 -7.95,-54.26 -5.3,-15.99 -12.9,-29.6 -22.88,-40.83 -9.99,-11.22 -22.09,-19.79 -36.32,-25.72 -14.23,-5.92 -30.4,-8.83 -48.43,-8.83 -18.03,0 -34.19,2.91 -48.51,8.83 -14.32,5.93 -26.42,14.5 -36.41,25.72 -9.98,11.22 -17.67,24.83 -22.97,40.83 -5.3,16 -7.95,34.11 -7.95,54.26 0,20.32 2.65,38.44 7.95,54.43 5.3,16 12.99,29.61 22.97,40.74 9.99,11.14 22.09,19.62 36.41,25.54 14.32,5.92 30.48,8.93 48.51,8.93 18.03,0 34.2,-3 48.43,-8.93 14.23,-5.92 26.33,-14.4 36.32,-25.54 9.98,-11.13 17.58,-24.74 22.88,-40.74 5.3,-15.99 7.95,-34.11 7.95,-54.43zm260.06 -10.07c12.91,0 24.04,-1.68 33.41,-4.95 9.36,-3.27 17.06,-7.77 23.06,-13.52 6.01,-5.74 10.43,-12.46 13.26,-20.23 2.83,-7.78 4.24,-16.26 4.24,-25.45 0,-18.2 -6.01,-32.34 -18.11,-42.41 -12.11,-10.07 -30.58,-15.11 -55.33,-15.11l-41.36 0 0 121.68 40.83 0zm186.37 202.54l-71.84 0c-13.43,0 -23.15,-5.13 -29.16,-15.38l-73.17 -117.97c-3,-4.59 -6.27,-7.95 -9.9,-10.07 -3.62,-2.12 -9.02,-3.18 -16.08,-3.18l-27.05 0 0 146.6 -79.53 0 0 -384.66 120.89 0c26.86,0 49.85,2.74 68.93,8.3 19.09,5.57 34.73,13.35 46.92,23.24 12.2,9.9 21.12,21.65 26.78,35.35 5.66,13.7 8.48,28.81 8.48,45.24 0,12.73 -1.77,24.75 -5.39,36.15 -3.62,11.4 -8.92,21.83 -15.81,31.19 -6.89,9.37 -15.37,17.67 -25.45,24.92 -10.07,7.24 -21.56,13.07 -34.46,17.5 5.13,2.83 9.9,6.19 14.32,10.16 4.42,3.97 8.39,8.75 11.93,14.22l89.6 138.39zm461.81 -384.66l0 384.66 -70.26 0 0 -236.2c0,-4.95 0.18,-10.25 0.44,-15.91 0.27,-5.65 0.7,-11.4 1.41,-17.23l-110.02 208.64c-6.01,11.49 -15.29,17.23 -27.83,17.23l-11.13 0c-6.19,0 -11.67,-1.5 -16.44,-4.42 -4.77,-2.91 -8.57,-7.16 -11.4,-12.81l-110.55 -209.43c0.54,6.19 0.97,12.11 1.33,17.85 0.35,5.75 0.53,11.14 0.53,16.09l0 236.2 -70.25 0 0 -384.66 60.44 0c3.36,0 6.36,0.09 9.01,0.26 2.65,0.18 5.04,0.62 7.07,1.41 2.04,0.8 3.89,2.04 5.57,3.71 1.68,1.68 3.27,4.07 4.86,7.07l107.63 205.19c3.36,6.19 6.54,12.55 9.46,19.09 2.92,6.54 5.65,13.25 8.3,20.15 2.65,-7.07 5.48,-13.96 8.39,-20.68 2.92,-6.71 6.01,-13.17 9.37,-19.35l106.83 -204.39c1.59,-3 3.27,-5.39 5.04,-7.07 1.77,-1.68 3.71,-2.91 5.74,-3.71 2.03,-0.79 4.33,-1.24 6.89,-1.41 2.56,-0.18 5.56,-0.26 9.1,-0.26l60.45 0zm283.39 238.59l-41.63 -117.7c-2.47,-6.19 -5.04,-13.43 -7.77,-21.74 -2.74,-8.3 -5.39,-17.32 -7.87,-27.04 -2.47,9.9 -5.04,19 -7.77,27.4 -2.74,8.39 -5.39,15.73 -7.86,21.91l-41.36 117.17 114.26 0zm133.61 146.07l-61.76 0c-6.89,0 -12.46,-1.68 -16.8,-4.95 -4.33,-3.27 -7.59,-7.43 -9.72,-12.55l-25.98 -73.43 -153.22 0 -25.98 73.43c-1.77,4.42 -4.86,8.39 -9.28,12.02 -4.42,3.62 -9.98,5.48 -16.7,5.48l-62.3 0 150.31 -384.66 81.39 0 150.05 384.66zm270.14 -320.5l-112.41 0 0 320.5 -79.8 0 0 -320.5 -112.41 0 0 -64.16 304.61 0 0 64.16zm128.05 320.5l-80.06 0 0 -384.66 80.06 0 0 384.66zm342.51 -94.64c4.42,0 8.13,1.59 11.13,4.77l31.55 33.67c-15.56,19.79 -34.81,34.82 -57.88,45.07 -23.06,10.25 -50.54,15.38 -82.35,15.38 -28.81,0 -54.7,-4.95 -77.68,-14.76 -22.97,-9.81 -42.5,-23.42 -58.59,-40.92 -16.08,-17.49 -28.46,-38.26 -37.11,-62.3 -8.66,-24.04 -12.99,-50.28 -12.99,-78.74 0,-19.09 2.12,-37.29 6.28,-54.52 4.15,-17.23 10.16,-33.05 18.11,-47.54 7.95,-14.49 17.59,-27.57 28.81,-39.24 11.22,-11.67 23.86,-21.65 38,-29.87 14.14,-8.22 29.6,-14.49 46.3,-18.82 16.7,-4.33 34.46,-6.45 53.37,-6.45 14.14,0 27.57,1.24 40.2,3.71 12.64,2.47 24.39,5.92 35.35,10.34 10.96,4.42 21.12,9.72 30.4,15.99 9.28,6.27 17.58,13.17 25.01,20.59l-26.78 36.59c-1.59,2.29 -3.62,4.33 -6.1,6.09 -2.47,1.77 -5.83,2.65 -10.07,2.65 -4.24,0 -8.48,-1.5 -12.81,-4.51 -4.33,-3 -9.63,-6.36 -15.91,-10.07 -6.28,-3.71 -14.14,-7.07 -23.59,-10.07 -9.46,-3 -21.47,-4.5 -35.96,-4.5 -16.08,0 -30.84,2.91 -44.28,8.74 -13.43,5.83 -24.92,14.23 -34.55,25.28 -9.63,11.04 -17.14,24.65 -22.44,40.74 -5.3,16.08 -7.96,34.37 -7.96,54.87 0,20.68 2.92,39.06 8.66,55.23 5.74,16.17 13.61,29.87 23.59,41 9.99,11.13 21.66,19.52 35,25.27 13.34,5.74 27.57,8.66 42.77,8.66 9.01,0 17.23,-0.44 24.56,-1.33 7.34,-0.88 14.14,-2.39 20.41,-4.51 6.27,-2.12 12.2,-4.86 17.76,-8.22 5.56,-3.36 11.13,-7.6 16.79,-12.72 1.94,-1.59 3.97,-2.92 6.09,-3.98 2.12,-1.06 4.42,-1.59 6.89,-1.59zm295.85 -216.32c-2.48,4.07 -4.95,6.98 -7.51,8.84 -2.56,1.86 -5.92,2.83 -9.98,2.83 -3.89,0 -8.04,-1.41 -12.55,-4.15 -4.5,-2.74 -9.81,-5.66 -15.81,-8.84 -6.01,-3.18 -12.9,-6.19 -20.68,-8.93 -7.78,-2.74 -16.88,-4.07 -27.31,-4.07 -18.38,0 -32.17,4.07 -41.36,12.28 -9.19,8.22 -13.78,19 -13.78,32.25 0,8.48 2.56,15.46 7.6,21.04 5.04,5.57 11.66,10.43 19.88,14.49 8.22,4.07 17.5,7.69 27.93,10.87 10.43,3.18 21.11,6.63 32.07,10.43 10.96,3.8 21.65,8.31 32.08,13.43 10.43,5.12 19.79,11.57 28.01,19.35 8.22,7.78 14.85,17.23 19.88,28.46 5.04,11.22 7.51,24.92 7.51,41 0,17.5 -3,33.85 -9.1,49.13 -6.1,15.29 -14.93,28.63 -26.43,40.03 -11.48,11.4 -25.63,20.41 -42.5,26.95 -16.88,6.54 -36.05,9.81 -57.44,9.81 -12.19,0 -24.3,-1.24 -36.4,-3.71 -12.11,-2.48 -23.77,-5.93 -35,-10.34 -11.22,-4.42 -21.83,-9.72 -31.72,-15.91 -9.89,-6.19 -18.56,-13.07 -25.98,-20.68l23.33 -37.65c1.94,-2.83 4.51,-5.21 7.69,-7.07 3.18,-1.85 6.54,-2.74 10.07,-2.74 4.77,0 9.81,1.77 15.11,5.3 5.3,3.54 11.4,7.42 18.29,11.66 6.89,4.24 14.93,8.13 24.04,11.67 9.11,3.54 19.97,5.3 32.7,5.3 18.56,0 32.96,-4.24 43.12,-12.72 10.16,-8.48 15.2,-21.12 15.2,-37.91 0,-9.72 -2.48,-17.59 -7.51,-23.59 -5.04,-6.01 -11.67,-11.05 -19.79,-15.11 -8.13,-4.07 -17.41,-7.6 -27.84,-10.52 -10.43,-2.91 -21.12,-6.09 -32.07,-9.63 -10.96,-3.54 -21.65,-7.78 -32.08,-12.73 -10.43,-4.95 -19.71,-11.48 -27.83,-19.61 -8.13,-8.13 -14.67,-18.21 -19.7,-30.22 -5.04,-12.02 -7.61,-26.96 -7.61,-44.8 0,-14.32 2.83,-28.19 8.49,-41.63 5.66,-13.43 13.96,-25.36 24.92,-35.79 10.95,-10.42 24.48,-18.82 40.47,-25.19 15.99,-6.36 34.29,-9.54 54.96,-9.54 23.15,0 44.63,3.54 64.33,10.69 19.7,7.15 36.31,17.14 49.93,29.87l-19.62 37.38z"/>
   </g>
  </g>
  <rect class="fil4" x="0" y="0.02" width="5333.33" height="3999.98"/>
 </g>
</svg>
