<?xml version="1.0" encoding="UTF-8"?>
<!DOCTYPE svg PUBLIC "-//W3C//DTD SVG 1.1//EN" "http://www.w3.org/Graphics/SVG/1.1/DTD/svg11.dtd">
<!-- Creator: CorelDRAW 2018 (64-Bit Not for commercial use) -->
<svg xmlns="http://www.w3.org/2000/svg" xml:space="preserve" width="4in" height="1.14546in" version="1.1" style="shape-rendering:geometricPrecision; text-rendering:geometricPrecision; image-rendering:optimizeQuality; fill-rule:evenodd; clip-rule:evenodd"
viewBox="0 0 4000 1145.47"
 xmlns:xlink="http://www.w3.org/1999/xlink">
 <defs>
  <style type="text/css">
   <![CDATA[
    .str0 {stroke:#1C1B17;stroke-width:3;stroke-miterlimit:2.61313}
    .fil1 {fill:#1C1B17}
    .fil2 {fill:black}
    .fil0 {fill:#BB8D32}
    .fil3 {fill:black;fill-rule:nonzero}
   ]]>
  </style>
 </defs>
 <g id="Layer_x0020_1">
  <metadata id="CorelCorpID_0Corel-Layer"/>
  <g id="_1754174373520">
   <g>
    <g>
     <circle class="fil0" cx="972.83" cy="572.73" r="572.73"/>
     <g>
      <path class="fil1 str0" d="M973.02 572.69l0 -475.69c262.72,0 475.69,212.97 475.69,475.69l-475.69 0z"/>
      <path class="fil1 str0" d="M972.64 572.78l0 475.69c-262.72,0 -475.69,-212.97 -475.69,-475.69l475.69 0z"/>
     </g>
     <circle class="fil1" cx="972.83" cy="572.73" r="285.29"/>
     <circle class="fil0" cx="972.83" cy="572.73" r="219.49"/>
     <circle class="fil1" cx="972.83" cy="572.73" r="121.27"/>
    </g>
    <polygon class="fil2" points="-0,1131.94 -0,13.52 306.12,13.52 306.12,174.17 200.26,174.17 200.26,452.69 310.46,452.69 310.46,681.06 200.26,681.06 200.26,945.64 310.46,945.64 310.46,1131.94 "/>
    <polygon class="fil2" points="1599.42,1134.61 1599.42,985.16 1659.39,985.16 1659.39,157.24 1599.42,157.24 1599.42,10.85 1904.74,10.85 1904.74,159.42 1845.42,159.42 1847.6,982.98 1902.56,982.98 1902.56,1134.61 "/>
   </g>
   <g>
    <path class="fil3" d="M2155.45 145.93l0 74.33 96.45 0 0 45.24 -96.45 0 0 75.93 123.95 0 0 46.83 -184.13 0 0 -289.15 184.13 0 0 46.83 -123.95 0zm303.31 95.06l99.24 0 0 119.37c-14.75,10.76 -30.43,18.6 -47.1,23.58 -16.67,4.98 -34.34,7.5 -52.94,7.5 -23.78,0 -45.31,-3.72 -64.57,-11.09 -19.26,-7.37 -35.74,-17.6 -49.42,-30.76 -13.69,-13.15 -24.24,-28.76 -31.69,-46.83 -7.44,-18.07 -11.16,-37.8 -11.16,-59.19 0,-21.65 3.59,-41.52 10.69,-59.58 7.11,-18.07 17.2,-33.61 30.36,-46.63 13.15,-13.02 29.09,-23.18 47.76,-30.49 18.67,-7.31 39.52,-10.96 62.64,-10.96 11.96,0 23.11,0.93 33.48,2.85 10.36,1.93 19.93,4.59 28.69,7.97 8.77,3.39 16.81,7.44 24.11,12.09 7.31,4.65 13.95,9.76 19.93,15.34l-17.34 26.7c-2.66,4.25 -6.11,6.84 -10.36,7.77 -4.25,0.93 -8.9,-0.13 -13.95,-3.19 -4.78,-2.93 -9.43,-5.58 -14.02,-7.91 -4.58,-2.33 -9.5,-4.32 -14.68,-6.05 -5.18,-1.73 -10.83,-3.06 -16.94,-3.98 -6.11,-0.93 -13.15,-1.39 -21.13,-1.39 -13.41,0 -25.57,2.32 -36.46,6.97 -10.89,4.65 -20.13,11.22 -27.77,19.73 -7.64,8.5 -13.55,18.73 -17.67,30.69 -4.12,11.96 -6.18,25.31 -6.18,40.06 0,15.94 2.26,30.16 6.78,42.71 4.52,12.56 10.89,23.19 19.13,31.81 8.24,8.64 18.13,15.21 29.63,19.73 11.49,4.52 24.25,6.78 38.33,6.78 9.57,0 18.13,-1 25.64,-2.93 7.51,-1.93 14.81,-4.52 21.99,-7.83l0 -48.63 -32.69 0c-3.85,0 -6.84,-1.06 -9.03,-3.12 -2.19,-2.06 -3.32,-4.65 -3.32,-7.84l0 -33.28zm270.82 36.07l0 111.2 -59.78 0 0 -111.2 -105.02 -177.96 52.61 0c5.18,0 9.37,1.2 12.49,3.65 3.12,2.46 5.58,5.65 7.44,9.5l47.43 91.07c3.19,6.11 6.11,11.82 8.7,17.13 2.59,5.31 4.85,10.63 6.84,15.94 1.86,-5.31 4.05,-10.69 6.51,-16.07 2.46,-5.38 5.18,-11.03 8.24,-17l47.03 -91.07c1.59,-3.19 3.99,-6.17 7.18,-8.96 3.19,-2.79 7.31,-4.19 12.35,-4.19l53.01 0 -105.02 177.96zm229.17 -34.08c18.73,0 32.48,-4.52 41.19,-13.55 8.7,-9.04 13.02,-21.39 13.02,-37.07 0,-7.17 -1.06,-13.75 -3.26,-19.67 -2.19,-5.91 -5.51,-10.96 -9.96,-15.14 -4.45,-4.19 -10.1,-7.38 -16.87,-9.63 -6.77,-2.26 -14.81,-3.39 -24.11,-3.39l-37.86 0 0 98.44 37.86 0zm0 -143.88c19.8,0 36.93,2.33 51.35,6.98 14.41,4.65 26.24,11.09 35.54,19.39 9.3,8.3 16.21,18.2 20.66,29.63 4.45,11.43 6.64,23.85 6.64,37.27 0,14.21 -2.33,27.23 -6.98,39.06 -4.65,11.83 -11.69,21.99 -21.12,30.49 -9.43,8.5 -21.32,15.08 -35.67,19.8 -14.35,4.72 -31.15,7.11 -50.42,7.11l-37.86 0 0 99.44 -59.78 0 0 -289.15 97.65 0zm356.91 48.23l-84.5 0 0 240.93 -59.98 0 0 -240.93 -84.49 0 0 -48.23 228.97 0 0 48.23zm96.25 240.93l-60.18 0 0 -289.15 60.18 0 0 289.15zm213.23 -109.8l-31.29 -88.48c-1.86,-4.65 -3.79,-10.09 -5.85,-16.34 -2.06,-6.24 -4.05,-13.02 -5.91,-20.32 -1.86,7.44 -3.79,14.28 -5.85,20.59 -2.06,6.31 -4.06,11.82 -5.91,16.48l-31.09 88.08 85.89 0zm100.44 109.8l-46.43 0c-5.18,0 -9.37,-1.26 -12.62,-3.72 -3.26,-2.46 -5.72,-5.58 -7.31,-9.43l-19.53 -55.2 -115.19 0 -19.53 55.2c-1.33,3.32 -3.65,6.31 -6.98,9.03 -3.32,2.72 -7.51,4.12 -12.56,4.12l-46.83 0 113 -289.15 61.18 0 112.79 289.15zm274.41 -289.15l0 289.15 -30.89 0c-4.65,0 -8.57,-0.8 -11.76,-2.33 -3.19,-1.52 -6.31,-4.11 -9.37,-7.83l-144.08 -183.34c0.4,4.65 0.73,9.23 0.93,13.75 0.2,4.52 0.26,8.7 0.26,12.56l0 167.19 -52.81 0 0 -289.15 31.48 0c2.52,0 4.72,0.06 6.51,0.27 1.79,0.2 3.39,0.66 4.85,1.39 1.46,0.73 2.85,1.72 4.19,2.92 1.33,1.2 2.79,2.79 4.39,4.78l145.07 184.13c-0.53,-5.05 -0.93,-9.96 -1.2,-14.68 -0.26,-4.72 -0.4,-9.17 -0.4,-13.42l0 -165.4 52.81 0z"/>
    <path class="fil3" d="M2315.01 593.74c0,15.67 -2.61,30.2 -7.88,43.59 -5.27,13.4 -12.71,24.98 -22.32,34.73 -9.6,9.76 -21.18,17.39 -34.68,22.96 -13.5,5.57 -28.47,8.37 -44.93,8.37 -16.45,0 -31.43,-2.81 -44.93,-8.37 -13.5,-5.57 -25.07,-13.2 -34.73,-22.96 -9.65,-9.75 -17.09,-21.33 -22.36,-34.73 -5.27,-13.4 -7.93,-27.93 -7.93,-43.59 0,-15.66 2.66,-30.2 7.93,-43.55 5.27,-13.35 12.71,-24.87 22.36,-34.63 9.66,-9.76 21.23,-17.44 34.73,-23 13.5,-5.57 28.47,-8.33 44.93,-8.33 16.45,0 31.43,2.76 44.93,8.33 13.5,5.57 25.07,13.25 34.68,23.05 9.61,9.8 17.05,21.38 22.32,34.73 5.27,13.35 7.88,27.83 7.88,43.4zm-45.37 0c0,-11.23 -1.48,-21.33 -4.43,-30.24 -2.96,-8.92 -7.19,-16.5 -12.76,-22.76 -5.57,-6.26 -12.31,-11.04 -20.25,-14.34 -7.93,-3.3 -16.94,-4.93 -26.99,-4.93 -10.05,0 -19.06,1.63 -27.04,4.93 -7.98,3.3 -14.73,8.08 -20.3,14.34 -5.57,6.25 -9.85,13.84 -12.81,22.76 -2.96,8.91 -4.43,19.01 -4.43,30.24 0,11.33 1.48,21.43 4.43,30.34 2.96,8.92 7.24,16.5 12.81,22.71 5.57,6.21 12.31,10.94 20.3,14.24 7.98,3.3 17,4.98 27.04,4.98 10.05,0 19.06,-1.67 26.99,-4.98 7.93,-3.3 14.68,-8.03 20.25,-14.24 5.57,-6.2 9.8,-13.79 12.76,-22.71 2.95,-8.91 4.43,-19.01 4.43,-30.34zm205.12 71.23l0 36.06 -127.24 0 0 -214.43 44.33 0 0 178.37 82.91 0zm95.76 -46.4l0 82.46 -44.33 0 0 -82.46 -77.88 -131.96 39.02 0c3.84,0 6.94,0.89 9.26,2.71 2.31,1.82 4.14,4.19 5.52,7.04l35.17 67.54c2.36,4.53 4.53,8.77 6.45,12.71 1.92,3.94 3.6,7.88 5.07,11.82 1.38,-3.94 3,-7.93 4.83,-11.92 1.82,-3.99 3.84,-8.18 6.11,-12.61l34.88 -67.54c1.19,-2.36 2.96,-4.58 5.32,-6.65 2.37,-2.07 5.42,-3.1 9.17,-3.1l39.31 0 -77.88 131.96zm333.98 -131.96l0 214.43 -39.16 0 0 -131.67c0,-2.76 0.1,-5.72 0.24,-8.87 0.15,-3.15 0.4,-6.35 0.79,-9.61l-61.33 116.3c-3.35,6.4 -8.52,9.6 -15.52,9.6l-6.21 0c-3.45,0 -6.5,-0.83 -9.16,-2.46 -2.66,-1.62 -4.78,-3.99 -6.35,-7.14l-61.62 -116.75c0.29,3.45 0.54,6.75 0.74,9.95 0.2,3.2 0.3,6.21 0.3,8.97l0 131.67 -39.16 0 0 -214.43 33.7 0c1.87,0 3.54,0.05 5.02,0.15 1.48,0.09 2.81,0.34 3.94,0.78 1.13,0.44 2.17,1.13 3.11,2.07 0.94,0.94 1.82,2.27 2.71,3.94l60 114.38c1.87,3.45 3.65,6.99 5.27,10.64 1.63,3.65 3.15,7.39 4.63,11.23 1.48,-3.94 3.06,-7.78 4.68,-11.53 1.63,-3.74 3.35,-7.34 5.22,-10.79l59.56 -113.94c0.89,-1.67 1.82,-3 2.81,-3.94 0.98,-0.94 2.07,-1.63 3.2,-2.07 1.13,-0.44 2.41,-0.69 3.84,-0.78 1.43,-0.1 3.1,-0.15 5.07,-0.15l33.69 0zm117.19 106.7c13.89,0 24.09,-3.35 30.54,-10.05 6.45,-6.7 9.65,-15.86 9.65,-27.49 0,-5.32 -0.79,-10.2 -2.41,-14.58 -1.63,-4.39 -4.09,-8.13 -7.39,-11.23 -3.3,-3.1 -7.49,-5.47 -12.51,-7.14 -5.02,-1.67 -10.98,-2.51 -17.88,-2.51l-28.08 0 0 73 28.08 0zm0 -106.7c14.68,0 27.39,1.72 38.08,5.17 10.69,3.45 19.46,8.23 26.35,14.39 6.9,6.16 12.02,13.5 15.32,21.97 3.3,8.47 4.93,17.69 4.93,27.63 0,10.54 -1.72,20.2 -5.17,28.97 -3.44,8.76 -8.67,16.3 -15.66,22.61 -7,6.3 -15.81,11.18 -26.45,14.68 -10.64,3.5 -23.11,5.27 -37.39,5.27l-28.08 0 0 73.74 -44.33 0 0 -214.43 72.41 0zm157.54 214.43l-44.63 0 0 -214.43 44.63 0 0 214.43zm158.12 -81.43l-23.2 -65.61c-1.38,-3.45 -2.81,-7.49 -4.33,-12.12 -1.53,-4.63 -3.01,-9.65 -4.39,-15.07 -1.38,5.52 -2.81,10.59 -4.33,15.27 -1.53,4.68 -3,8.77 -4.38,12.22l-23.06 65.32 63.69 0zm74.48 81.43l-34.43 0c-3.84,0 -6.94,-0.94 -9.36,-2.76 -2.41,-1.82 -4.24,-4.14 -5.42,-6.99l-14.48 -40.94 -85.41 0 -14.48 40.94c-0.98,2.46 -2.71,4.68 -5.17,6.7 -2.46,2.02 -5.57,3.05 -9.31,3.05l-34.73 0 83.79 -214.43 45.37 0 83.65 214.43zm212.07 -107.29c0,15.67 -2.61,30.05 -7.88,43.2 -5.27,13.15 -12.71,24.48 -22.31,33.94 -9.61,9.46 -21.18,16.85 -34.68,22.17 -13.5,5.32 -28.47,7.98 -44.92,7.98l-82.46 0 0 -214.43 82.46 0c16.45,0 31.43,2.66 44.92,7.98 13.5,5.32 25.07,12.71 34.68,22.22 9.61,9.5 17.04,20.83 22.31,33.94 5.27,13.1 7.88,27.43 7.88,43zm-45.52 0c0,-11.23 -1.48,-21.33 -4.43,-30.3 -2.96,-8.96 -7.19,-16.55 -12.71,-22.76 -5.52,-6.21 -12.22,-10.99 -20.15,-14.33 -7.93,-3.35 -16.94,-5.02 -26.99,-5.02l-37.83 0 0 144.97 37.83 0c10.05,0 19.06,-1.67 26.99,-4.97 7.93,-3.3 14.63,-8.08 20.15,-14.34 5.52,-6.25 9.75,-13.84 12.71,-22.81 2.95,-8.96 4.43,-19.11 4.43,-30.44zm193 107.29l-44.63 0 0 -214.43 44.63 0 0 214.43zm228.62 -214.43l0 214.43 -22.91 0c-3.45,0 -6.35,-0.59 -8.72,-1.72 -2.37,-1.13 -4.68,-3.06 -6.94,-5.81l-106.85 -135.95c0.3,3.44 0.54,6.85 0.69,10.2 0.15,3.35 0.2,6.45 0.2,9.31l0 123.99 -39.16 0 0 -214.43 23.35 0c1.87,0 3.49,0.05 4.82,0.2 1.33,0.15 2.52,0.49 3.6,1.04 1.08,0.54 2.12,1.28 3.1,2.17 0.99,0.89 2.07,2.07 3.25,3.55l107.59 136.55c-0.4,-3.74 -0.69,-7.39 -0.89,-10.89 -0.2,-3.5 -0.3,-6.8 -0.3,-9.95l0 -122.66 39.17 0z"/>
    <path class="fil3" d="M2138.28 1047.27l-43.01 0 0 -206.65 43.01 0 0 206.65zm220.32 -206.65l0 206.65 -22.07 0c-3.33,0 -6.13,-0.57 -8.41,-1.66 -2.28,-1.09 -4.51,-2.94 -6.69,-5.6l-102.97 -131.02c0.29,3.32 0.52,6.6 0.67,9.83 0.14,3.23 0.19,6.22 0.19,8.97l0 119.49 -37.74 0 0 -206.65 22.5 0c1.8,0 3.37,0.05 4.65,0.19 1.28,0.15 2.42,0.48 3.46,1 1.05,0.52 2.04,1.24 2.99,2.09 0.95,0.85 1.99,1.99 3.13,3.42l103.68 131.59c-0.38,-3.61 -0.66,-7.12 -0.85,-10.5 -0.19,-3.37 -0.28,-6.55 -0.28,-9.59l0 -118.21 37.74 0zm86.31 33.47l0 57.11 74.34 0 0 33.61 -74.34 0 0 82.46 -43.01 0 0 -206.65 131.59 0 0 33.47 -88.58 0zm316.03 69.78c0,15.09 -2.52,29.1 -7.59,42.01 -5.08,12.91 -12.25,24.07 -21.51,33.47 -9.26,9.4 -20.41,16.76 -33.42,22.12 -13.01,5.36 -27.44,8.07 -43.3,8.07 -15.85,0 -30.28,-2.71 -43.29,-8.07 -13.01,-5.37 -24.17,-12.72 -33.47,-22.12 -9.3,-9.4 -16.47,-20.56 -21.56,-33.47 -5.08,-12.91 -7.64,-26.92 -7.64,-42.01 0,-15.1 2.56,-29.1 7.64,-41.97 5.08,-12.87 12.25,-23.97 21.56,-33.37 9.3,-9.4 20.46,-16.81 33.47,-22.17 13.01,-5.36 27.44,-8.02 43.29,-8.02 15.86,0 30.29,2.66 43.3,8.02 13.01,5.37 24.16,12.77 33.42,22.22 9.26,9.44 16.43,20.6 21.51,33.46 5.08,12.87 7.59,26.83 7.59,41.83zm-43.72 0c0,-10.83 -1.42,-20.56 -4.27,-29.15 -2.85,-8.59 -6.93,-15.9 -12.29,-21.93 -5.37,-6.03 -11.87,-10.63 -19.52,-13.81 -7.64,-3.18 -16.33,-4.74 -26.02,-4.74 -9.68,0 -18.37,1.57 -26.06,4.74 -7.69,3.18 -14.19,7.79 -19.56,13.81 -5.37,6.03 -9.5,13.34 -12.34,21.93 -2.85,8.59 -4.27,18.32 -4.27,29.15 0,10.92 1.42,20.65 4.27,29.24 2.85,8.59 6.98,15.91 12.34,21.89 5.37,5.98 11.87,10.54 19.56,13.72 7.69,3.18 16.38,4.8 26.06,4.8 9.69,0 18.37,-1.61 26.02,-4.8 7.65,-3.18 14.15,-7.74 19.52,-13.72 5.36,-5.98 9.44,-13.29 12.29,-21.89 2.85,-8.59 4.27,-18.32 4.27,-29.24zm139.71 -5.41c6.93,0 12.91,-0.9 17.95,-2.66 5.03,-1.76 9.17,-4.18 12.39,-7.26 3.23,-3.09 5.6,-6.7 7.12,-10.87 1.52,-4.18 2.28,-8.74 2.28,-13.67 0,-9.78 -3.23,-17.37 -9.73,-22.79 -6.5,-5.41 -16.43,-8.12 -29.72,-8.12l-22.22 0 0 65.37 21.93 0zm100.13 108.81l-38.6 0c-7.21,0 -12.43,-2.75 -15.67,-8.26l-39.31 -63.38c-1.61,-2.47 -3.37,-4.27 -5.31,-5.41 -1.94,-1.14 -4.84,-1.71 -8.64,-1.71l-14.53 0 0 78.76 -42.72 0 0 -206.65 64.94 0c14.43,0 26.78,1.47 37.03,4.46 10.25,2.99 18.66,7.17 25.21,12.49 6.55,5.32 11.35,11.63 14.38,18.99 3.04,7.36 4.56,15.48 4.56,24.31 0,6.84 -0.95,13.29 -2.9,19.42 -1.94,6.12 -4.79,11.72 -8.5,16.76 -3.7,5.03 -8.26,9.49 -13.67,13.39 -5.41,3.89 -11.58,7.02 -18.51,9.4 2.75,1.52 5.31,3.32 7.69,5.46 2.37,2.13 4.51,4.7 6.41,7.64l48.14 74.34zm248.09 -206.65l0 206.65 -37.74 0 0 -126.89c0,-2.66 0.09,-5.51 0.24,-8.55 0.15,-3.04 0.38,-6.12 0.76,-9.26l-59.1 112.09c-3.23,6.17 -8.21,9.26 -14.96,9.26l-5.98 0c-3.32,0 -6.27,-0.81 -8.83,-2.37 -2.56,-1.57 -4.61,-3.85 -6.12,-6.88l-59.39 -112.51c0.29,3.32 0.52,6.5 0.71,9.59 0.19,3.09 0.28,5.98 0.28,8.64l0 126.89 -37.74 0 0 -206.65 32.47 0c1.8,0 3.42,0.05 4.84,0.14 1.43,0.1 2.7,0.33 3.8,0.76 1.09,0.43 2.09,1.09 2.99,2 0.9,0.9 1.76,2.19 2.61,3.8l57.82 110.23c1.8,3.33 3.51,6.74 5.08,10.26 1.57,3.51 3.04,7.12 4.46,10.82 1.43,-3.8 2.94,-7.5 4.51,-11.11 1.57,-3.61 3.23,-7.07 5.04,-10.39l57.39 -109.8c0.85,-1.61 1.76,-2.9 2.7,-3.8 0.95,-0.9 1.99,-1.57 3.09,-2 1.09,-0.43 2.32,-0.66 3.7,-0.76 1.37,-0.09 2.99,-0.14 4.89,-0.14l32.48 0zm152.24 128.18l-22.36 -63.23c-1.33,-3.32 -2.7,-7.22 -4.18,-11.68 -1.47,-4.46 -2.89,-9.31 -4.22,-14.53 -1.33,5.31 -2.7,10.2 -4.18,14.72 -1.47,4.51 -2.9,8.45 -4.22,11.77l-22.22 62.95 61.38 0zm71.78 78.47l-33.19 0c-3.7,0 -6.69,-0.9 -9.02,-2.66 -2.33,-1.76 -4.08,-3.99 -5.22,-6.74l-13.96 -39.45 -82.32 0 -13.96 39.45c-0.95,2.37 -2.61,4.51 -4.99,6.45 -2.37,1.95 -5.36,2.94 -8.97,2.94l-33.47 0 80.75 -206.65 43.72 0 80.61 206.65zm145.13 -172.18l-60.39 0 0 172.18 -42.87 0 0 -172.18 -60.39 0 0 -34.47 163.64 0 0 34.47zm68.79 172.18l-43.01 0 0 -206.65 43.01 0 0 206.65zm184 -50.84c2.37,0 4.37,0.85 5.98,2.56l16.94 18.09c-8.35,10.63 -18.7,18.7 -31.09,24.21 -12.39,5.51 -27.15,8.26 -44.24,8.26 -15.48,0 -29.39,-2.66 -41.73,-7.93 -12.34,-5.27 -22.83,-12.58 -31.47,-21.98 -8.64,-9.4 -15.29,-20.56 -19.94,-33.46 -4.65,-12.91 -6.98,-27.01 -6.98,-42.3 0,-10.26 1.14,-20.04 3.37,-29.29 2.23,-9.26 5.46,-17.76 9.73,-25.54 4.27,-7.78 9.44,-14.81 15.47,-21.07 6.03,-6.27 12.82,-11.63 20.42,-16.05 7.59,-4.41 15.9,-7.78 24.87,-10.11 8.97,-2.33 18.51,-3.46 28.67,-3.46 7.59,0 14.81,0.66 21.6,1.99 6.79,1.33 13.1,3.18 18.99,5.56 5.89,2.37 11.35,5.22 16.33,8.59 4.98,3.37 9.44,7.07 13.43,11.06l-14.38 19.65c-0.85,1.23 -1.95,2.33 -3.28,3.28 -1.33,0.95 -3.13,1.42 -5.41,1.42 -2.28,0 -4.56,-0.81 -6.88,-2.42 -2.33,-1.61 -5.18,-3.42 -8.55,-5.41 -3.37,-1.99 -7.6,-3.8 -12.68,-5.41 -5.08,-1.61 -11.53,-2.42 -19.32,-2.42 -8.64,0 -16.57,1.57 -23.79,4.7 -7.21,3.13 -13.39,7.65 -18.56,13.58 -5.18,5.93 -9.21,13.24 -12.06,21.89 -2.85,8.64 -4.27,18.46 -4.27,29.48 0,11.11 1.57,20.98 4.65,29.67 3.09,8.69 7.31,16.05 12.68,22.03 5.36,5.98 11.63,10.49 18.8,13.58 7.17,3.08 14.81,4.65 22.98,4.65 4.84,0 9.26,-0.24 13.2,-0.72 3.94,-0.47 7.6,-1.28 10.97,-2.42 3.37,-1.14 6.55,-2.61 9.54,-4.41 2.99,-1.8 5.98,-4.08 9.02,-6.84 1.04,-0.85 2.13,-1.56 3.27,-2.13 1.14,-0.57 2.38,-0.85 3.7,-0.85zm158.94 -116.21c-1.33,2.19 -2.66,3.75 -4.04,4.75 -1.37,1 -3.18,1.52 -5.37,1.52 -2.09,0 -4.32,-0.76 -6.74,-2.23 -2.42,-1.47 -5.27,-3.04 -8.5,-4.75 -3.23,-1.71 -6.93,-3.32 -11.11,-4.8 -4.18,-1.47 -9.07,-2.19 -14.67,-2.19 -9.87,0 -17.28,2.19 -22.22,6.6 -4.94,4.42 -7.41,10.21 -7.41,17.33 0,4.56 1.38,8.31 4.08,11.3 2.7,2.99 6.27,5.6 10.68,7.78 4.41,2.19 9.4,4.13 15,5.84 5.6,1.71 11.34,3.56 17.23,5.6 5.88,2.04 11.63,4.46 17.23,7.22 5.6,2.75 10.63,6.22 15.05,10.39 4.42,4.18 7.98,9.26 10.68,15.29 2.7,6.03 4.04,13.39 4.04,22.03 0,9.4 -1.61,18.18 -4.89,26.39 -3.28,8.21 -8.02,15.38 -14.2,21.5 -6.17,6.12 -13.77,10.96 -22.83,14.48 -9.07,3.52 -19.37,5.27 -30.85,5.27 -6.55,0 -13.06,-0.67 -19.56,-1.99 -6.5,-1.33 -12.77,-3.18 -18.8,-5.56 -6.03,-2.37 -11.72,-5.22 -17.04,-8.55 -5.31,-3.32 -9.97,-7.02 -13.96,-11.11l12.54 -20.22c1.05,-1.52 2.43,-2.8 4.13,-3.8 1.71,-1 3.51,-1.48 5.41,-1.48 2.56,0 5.27,0.95 8.12,2.85 2.85,1.9 6.12,3.99 9.83,6.27 3.7,2.28 8.02,4.37 12.91,6.26 4.89,1.9 10.73,2.85 17.56,2.85 9.97,0 17.71,-2.28 23.17,-6.83 5.46,-4.56 8.17,-11.35 8.17,-20.37 0,-5.22 -1.33,-9.45 -4.04,-12.68 -2.71,-3.23 -6.27,-5.94 -10.63,-8.12 -4.37,-2.19 -9.35,-4.08 -14.96,-5.65 -5.6,-1.57 -11.35,-3.28 -17.23,-5.17 -5.89,-1.9 -11.63,-4.18 -17.23,-6.84 -5.6,-2.66 -10.59,-6.17 -14.95,-10.54 -4.37,-4.37 -7.88,-9.78 -10.59,-16.24 -2.7,-6.46 -4.09,-14.48 -4.09,-24.07 0,-7.69 1.52,-15.15 4.56,-22.36 3.04,-7.22 7.5,-13.63 13.39,-19.23 5.89,-5.6 13.15,-10.11 21.74,-13.53 8.59,-3.42 18.42,-5.13 29.52,-5.13 12.44,0 23.98,1.9 34.56,5.74 10.59,3.84 19.51,9.21 26.82,16.04l-10.54 20.08z"/>
   </g>
  </g>
 </g>
</svg>
